# xmcd
#
# Track frame offsets: 
#        150
#        12690
#        26782
#        36787
#        49668
#        62326
#        74210
#        88664
#        100807
#        114311
#        125490
#        139817
#        149716
#        164511
#        175078
#        185469
#        197435
#        207299
#        218207
#        231570
#        241879
#        254174
#        265482
#        275605
#        285763
#        295098
#        306735
#
# Disc length: 4215 seconds
#
# Revision: 4
# Processed by: cddbd v1.5.2PL0 Copyright (c) Steve Scherf et al.
# Submitted via: ExactAudioCopy v1.3
#
DISCID=b110751b
DTITLE=Maddox Brothers and Rose - America's Most Colorful Hillbilly Ba
DTITLE=nd  - Vol. 01
DYEAR=1993
DGENRE=Country
TTITLE0=George's Playhose Boogie - (1946-51)
TTITLE1=Midnight Train - (1946-51)
TTITLE2=Shimmy Shakin' Daddy - (1946-51)
TTITLE3=Careless Driver - (1946-51)
TTITLE4=Move It On Over - (1946-51)
TTITLE5=Whoa Sailor - (1946-51)
TTITLE6=Milk Cow Boogie - (1946-51)
TTITLE7=Mean and Wicked Boogie - (1946-51)
TTITLE8=Brown Eyes - (1946-51)
TTITLE9=Honky Tonkin' - (1946-51)
TTITLE10=Time Nor Tide - (1946-51)
TTITLE11=I Want to Live and Love Again (mislabeled as New Mule Skinner
TTITLE11=Blues - (1946-51)
TTITLE12=Philadelphia Lawyer - (1946-51)
TTITLE13=Sally Let Your Bangs Hang Down - (1946-51)
TTITLE14=When I Lay My Burdens Down - (1946-51)
TTITLE15=Hangover Blues - (1946-51)
TTITLE16=Water Baby Boogie - (1946-51)
TTITLE17=Dark as the Dungeon - (1946-51)
TTITLE18=Mule Train - (1946-51)
TTITLE19=Oklahoma Sweetheart Sally Ann - (1946-51)
TTITLE20=Faded Love - (1946-51)
TTITLE21=New Step it Up and Go - (1946-51)
TTITLE22=(Pay Me) Alimony - (1946-51)
TTITLE23=I Wish I Was a Single Girl Again - (1946-51)
TTITLE24=Your Love Light Never Shone - (1946-51)
TTITLE25=Meanest Man in Town - (1946-51)
TTITLE26=I Want to Live and Love - (1946-51)
EXTD=YEAR: 1993
EXTT0=
EXTT1=
EXTT2=
EXTT3=
EXTT4=
EXTT5=
EXTT6=
EXTT7=
EXTT8=
EXTT9=
EXTT10=
EXTT11=
EXTT12=
EXTT13=
EXTT14=
EXTT15=
EXTT16=
EXTT17=
EXTT18=
EXTT19=
EXTT20=
EXTT21=
EXTT22=
EXTT23=
EXTT24=
EXTT25=
EXTT26=
PLAYORDER=
